<?xml version="1.0" encoding="UTF-8" standalone="no"?>
<!DOCTYPE svg PUBLIC "-//W3C//DTD SVG 1.1//EN" "http://www.w3.org/Graphics/SVG/1.1/DTD/svg11.dtd">
<svg version="1.1" xmlns="http://www.w3.org/2000/svg" xmlns:xlink="http://www.w3.org/1999/xlink" preserveAspectRatio="xMidYMid meet" viewBox="0 0 640 640" width="640" height="640"><defs><path d="M111.74 323.75C111.74 353.51 87.57 377.68 57.8 377.68C28.04 377.68 3.87 353.51 3.87 323.75C3.87 293.98 28.04 269.82 57.8 269.82C87.57 269.82 111.74 293.98 111.74 323.75Z" id="a5zTbGMKpo"></path><path d="M149.85 127.51C149.85 136.88 142.25 144.48 132.88 144.48C123.52 144.48 115.92 136.88 115.92 127.51C115.92 118.15 123.52 110.55 132.88 110.55C142.25 110.55 149.85 118.15 149.85 127.51Z" id="g9BpudVq1"></path><path d="M361.7 43.18C361.7 60.02 348.02 73.7 331.17 73.7C314.33 73.7 300.65 60.02 300.65 43.18C300.65 26.33 314.33 12.66 331.17 12.66C348.02 12.66 361.7 26.33 361.7 43.18Z" id="hUNhsxakI"></path><path d="M554.18 132.2C554.18 144.15 544.48 153.85 532.53 153.85C520.58 153.85 510.88 144.15 510.88 132.2C510.88 120.25 520.58 110.55 532.53 110.55C544.48 110.55 554.18 120.25 554.18 132.2Z" id="ba8Mn3hXl"></path><path d="M636.13 323.75C636.13 339.19 623.59 351.73 608.15 351.73C592.71 351.73 580.17 339.19 580.17 323.75C580.17 308.31 592.71 295.77 608.15 295.77C623.59 295.77 636.13 308.31 636.13 323.75Z" id="h2oEtgQmx"></path><path d="" id="aZ6NJ4j8F"></path><path d="" id="cHDy5dpvj"></path><path d="M553.68 515.39C553.68 526.42 544.73 535.37 533.7 535.37C522.67 535.37 513.71 526.42 513.71 515.39C513.71 504.36 522.67 495.4 533.7 495.4C544.73 495.4 553.68 504.36 553.68 515.39Z" id="a1ggdRCUJh"></path><path d="M361.7 597.37C361.7 613.91 348.26 627.34 331.72 627.34C315.17 627.34 301.74 613.91 301.74 597.37C301.74 580.82 315.17 567.39 331.72 567.39C348.26 567.39 361.7 580.82 361.7 597.37Z" id="a3LJkteAB"></path><path d="M170.86 515.39C170.86 536.35 153.84 553.36 132.88 553.36C111.93 553.36 94.91 536.35 94.91 515.39C94.91 494.43 111.93 477.42 132.88 477.42C153.84 477.42 170.86 494.43 170.86 515.39Z" id="c674H30cI"></path><path d="M608.15 321.79C608.15 473.9 484.66 597.4 332.55 597.4C180.43 597.4 56.94 473.9 56.94 321.79C56.94 169.68 180.43 46.19 332.55 46.19C484.66 46.19 608.15 169.68 608.15 321.79Z" id="cUA9CycyP"></path><path d="M58.97 323.75L132.88 126.25" id="a332R50ajY"></path><path d="M58.97 323.75L132.88 514.08L332.55 597.4L533.7 514.74L608.15 323.75L532.53 132.2L331.17 43.18L132.88 126.25" id="a7qzy6Rjy"></path></defs><g><g><g><use xlink:href="#a5zTbGMKpo" opacity="1" fill="#00d0bb" fill-opacity="1"></use><g><use xlink:href="#a5zTbGMKpo" opacity="1" fill-opacity="0" stroke="#00d0bb" stroke-width="1" stroke-opacity="1"></use></g></g><g><use xlink:href="#g9BpudVq1" opacity="1" fill="#00d0bb" fill-opacity="1"></use><g><use xlink:href="#g9BpudVq1" opacity="1" fill-opacity="0" stroke="#00d0bb" stroke-width="1" stroke-opacity="1"></use></g></g><g><use xlink:href="#hUNhsxakI" opacity="1" fill="#00d0bb" fill-opacity="1"></use><g><use xlink:href="#hUNhsxakI" opacity="1" fill-opacity="0" stroke="#00d0bb" stroke-width="1" stroke-opacity="1"></use></g></g><g><use xlink:href="#ba8Mn3hXl" opacity="1" fill="#00d0bb" fill-opacity="1"></use><g><use xlink:href="#ba8Mn3hXl" opacity="1" fill-opacity="0" stroke="#00d0bb" stroke-width="1" stroke-opacity="1"></use></g></g><g><use xlink:href="#h2oEtgQmx" opacity="1" fill="#00d0bb" fill-opacity="1"></use><g><use xlink:href="#h2oEtgQmx" opacity="1" fill-opacity="0" stroke="#00d0bb" stroke-width="1" stroke-opacity="1"></use></g></g><g><g><use xlink:href="#aZ6NJ4j8F" opacity="1" fill-opacity="0" stroke="#5cb1a9" stroke-width="1" stroke-opacity="1"></use></g></g><g><g><use xlink:href="#cHDy5dpvj" opacity="1" fill-opacity="0" stroke="#5cb1a9" stroke-width="1" stroke-opacity="1"></use></g></g><g><use xlink:href="#a1ggdRCUJh" opacity="1" fill="#00d0bb" fill-opacity="1"></use><g><use xlink:href="#a1ggdRCUJh" opacity="1" fill-opacity="0" stroke="#00d0bb" stroke-width="1" stroke-opacity="1"></use></g></g><g><use xlink:href="#a3LJkteAB" opacity="1" fill="#00d0bb" fill-opacity="1"></use><g><use xlink:href="#a3LJkteAB" opacity="1" fill-opacity="0" stroke="#00d0bb" stroke-width="1" stroke-opacity="1"></use></g></g><g><use xlink:href="#c674H30cI" opacity="1" fill="#00d0bb" fill-opacity="1"></use><g><use xlink:href="#c674H30cI" opacity="1" fill-opacity="0" stroke="#00d0bb" stroke-width="1" stroke-opacity="1"></use></g></g><g><use xlink:href="#cUA9CycyP" opacity="1" fill="#00d0bb" fill-opacity="0"></use><g><use xlink:href="#cUA9CycyP" opacity="1" fill-opacity="0" stroke="#00d0bb" stroke-width="2" stroke-opacity="1"></use></g></g><g><use xlink:href="#a332R50ajY" opacity="1" fill="#0a897c" fill-opacity="1"></use><g><use xlink:href="#a332R50ajY" opacity="1" fill-opacity="0" stroke="#00d0bb" stroke-width="2" stroke-opacity="1"></use></g></g><g><g><use xlink:href="#a7qzy6Rjy" opacity="1" fill-opacity="0" stroke="#00d0bb" stroke-width="2" stroke-opacity="1"></use></g></g></g></g></svg>